HIERARCHY
ROOT Hips
{
	OFFSET	0.00	0.00	0.00
	CHANNELS 6 Xposition Yposition Zposition Zrotation Xrotation Yrotation
	JOINT LeftUpLeg
	{
		OFFSET	 0.126116	-0.065224	 0.014019
		CHANNELS 3 Zrotation Xrotation Yrotation
		JOINT LeftLeg
		{
			OFFSET	 0.000000	 0.569914	 0.000000
			CHANNELS 3 Zrotation Xrotation Yrotation
			JOINT LeftFoot
			{
				OFFSET	 0.000000	 0.544423	 0.000000
				CHANNELS 3 Zrotation Xrotation Yrotation
				JOINT LeftToeBase
				{
					OFFSET	 0.000000	 0.207117	 0.000000
					CHANNELS 3 Zrotation Xrotation Yrotation
					End Site
					{
						OFFSET	 0.000000	 0.207117	 0.000000
					}
				}
			}
		}
	}
	JOINT RightUpLeg
	{
		OFFSET	-0.124023	-0.065224	 0.008373
		CHANNELS 3 Zrotation Xrotation Yrotation
		JOINT RightLeg
		{
			OFFSET	 0.000000	 0.570047	 0.000000
			CHANNELS 3 Zrotation Xrotation Yrotation
			JOINT RightFoot
			{
				OFFSET	 0.000000	 0.544354	 0.000000
				CHANNELS 3 Zrotation Xrotation Yrotation
				JOINT RightToeBase
				{
					OFFSET	 0.000000	 0.207540	 0.000000
					CHANNELS 3 Zrotation Xrotation Yrotation
					End Site
					{
						OFFSET	 0.000000	 0.207540	 0.000000
					}
				}
			}
		}
	}
	JOINT Spine
	{
		OFFSET	 0.000184	 0.117403	 0.007763
		CHANNELS 3 Zrotation Xrotation Yrotation
		JOINT Spine1
		{
			OFFSET	 0.000000	 0.137269	 0.000000
			CHANNELS 3 Zrotation Xrotation Yrotation
			JOINT Spine2
			{
				OFFSET	 0.000000	 0.156879	 0.000000
				CHANNELS 3 Zrotation Xrotation Yrotation
				JOINT LeftShoulder
				{
					OFFSET	 0.080501	 0.160143	 0.002496
					CHANNELS 3 Zrotation Xrotation Yrotation
					JOINT LeftArm
					{
						OFFSET	 0.000000	 0.164363	 0.000000
						CHANNELS 3 Zrotation Xrotation Yrotation
						JOINT LeftForeArm
						{
							OFFSET	 0.000000	 0.364576	 0.000000
							CHANNELS 3 Zrotation Xrotation Yrotation
							JOINT LeftHand
							{
								OFFSET	 0.000000	 0.360812	 0.000000
								CHANNELS 3 Zrotation Xrotation Yrotation
								JOINT LeftHandIndex1
								{
									OFFSET	 0.000000	 0.086006	 0.000000
									CHANNELS 3 Zrotation Xrotation Yrotation
									JOINT LeftHandIndex2
									{
										OFFSET	 0.000000	 0.047237	 0.000000
										CHANNELS 3 Zrotation Xrotation Yrotation
										JOINT LeftHandIndex3
										{
											OFFSET	-0.004284	 0.038165	 0.000551
											CHANNELS 3 Zrotation Xrotation Yrotation
											End Site
											{
												OFFSET	-0.004284	 0.038165	 0.000551
											}
										}
									}
								}
							}
						}
					}
				}
				JOINT Neck
				{
					OFFSET	 0.000000	 0.176489	 0.000000
					CHANNELS 3 Zrotation Xrotation Yrotation
					JOINT Head
					{
						OFFSET	 0.000000	 0.077941	 0.001747
						CHANNELS 3 Zrotation Xrotation Yrotation
						End Site
						{
							OFFSET	 0.000000	 0.077941	 0.001747
						}
					}
				}
				JOINT RightShoulder
				{
					OFFSET	-0.080363	 0.159706	-0.000306
					CHANNELS 3 Zrotation Xrotation Yrotation
					JOINT RightArm
					{
						OFFSET	 0.000000	 0.164196	 0.000000
						CHANNELS 3 Zrotation Xrotation Yrotation
						JOINT RightForeArm
						{
							OFFSET	 0.000000	 0.365611	 0.000000
							CHANNELS 3 Zrotation Xrotation Yrotation
							JOINT RightHand
							{
								OFFSET	 0.000000	 0.360648	 0.000000
								CHANNELS 3 Zrotation Xrotation Yrotation
								JOINT RightHandIndex1
								{
									OFFSET	 0.000000	 0.069977	 0.000000
									CHANNELS 3 Zrotation Xrotation Yrotation
									JOINT RightHandIndex2
									{
										OFFSET	 0.000000	 0.052305	 0.000000
										CHANNELS 3 Zrotation Xrotation Yrotation
										JOINT RightHandIndex3
										{
											OFFSET	 0.009002	 0.042196	 0.000782
											CHANNELS 3 Zrotation Xrotation Yrotation
											End Site
											{
												OFFSET	 0.009002	 0.042196	 0.000782
											}
										}
									}
								}
							}
						}
					}
				}
			}
		}
	}
}
MOTION
Frames:    12
Frame Time: 0.03333334
 0.002358	 1.271137	 0.063404	-0.397913	 0.005102	-179.992600	-176.026700	 0.267017	-17.881280	 1.857235	-8.697815	-0.116194	-5.648185	 68.479430	 4.604088	 1.292262	 28.425850	-2.713146	 175.126400	 1.734681	 17.856730	-2.338479	-11.225330	 0.036399	 5.964958	 69.694370	-4.795988	-1.288183	 28.361890	 2.710176	-0.041998	 2.998204	 10.135090	-2.299180	 2.957812	 5.217223	 2.194328	-3.666477	-15.278670	-101.478000	 1.740674	 90.353380	 3.890385	 64.326550	-0.442819	 2.188210	 4.568145	 1.367792	 12.971470	 10.307650	 33.385380	-6.580301	 5.266122	 0.000000	 0.000000	 0.000000	 0.000000	 0.000000	 0.000000	 0.000000	 0.089846	-3.783161	 0.005928	 0.025230	 0.759786	-3.803753	 101.796200	-0.213321	-89.955450	-7.254910	 62.286220	-1.329745	-2.792075	 4.274024	 1.385781	-9.308731	-4.011120	 37.770560	 15.208500	 5.323790	 0.000000	 0.000000	 0.000000	 0.000000	 0.000000	 0.000000	 0.000000
 0.002118	 1.271149	 0.063619	-0.251415	-0.120871	-179.995900	-175.860100	 0.642211	-17.874870	 1.958983	-9.166258	-0.100395	-5.700635	 68.704280	 4.611352	 1.292262	 28.425850	-2.713146	 175.272300	 1.781112	 17.865980	-2.295945	-11.026320	 0.044607	 5.923436	 69.571110	-4.770245	-1.288183	 28.361890	 2.710176	-0.054360	 3.665712	 12.966520	-2.315396	 0.194725	 4.905601	 2.416894	-0.177474	-14.756250	-101.478000	 1.740667	 90.353390	 7.120793	 64.161610	-3.563192	 2.287273	 4.525298	 1.444480	 9.416655	 9.178171	 32.867590	-6.580301	 5.266122	 0.000000	 0.000000	 0.000000	 0.000000	 0.000000	 0.000000	 0.000000	 0.089846	-3.783161	 0.005928	 0.038825	 1.204022	-3.693763	 101.796200	-0.213324	-89.955440	-8.061544	 62.873790	-0.512074	-2.826232	 4.139356	 0.999944	-9.886903	-4.355598	 33.434250	 15.208500	 5.323790	 0.000000	 0.000000	 0.000000	 0.000000	 0.000000	 0.000000	 0.000000
 0.001845	 1.271257	 0.063845	-0.094070	-0.256754	-179.998600	-175.689300	 0.977555	-17.868520	 2.038559	-9.531743	-0.087467	-5.724050	 68.875880	 4.601292	 1.292262	 28.425850	-2.713146	 175.434600	 1.777915	 17.875330	-2.227277	-10.704430	 0.057547	 5.851361	 69.383670	-4.725307	-1.288183	 28.361890	 2.710176	-0.064695	 4.399383	 12.880710	-2.081684	-2.862290	 4.100170	 2.347910	 3.674014	-12.637730	-101.478000	 1.740672	 90.353390	 10.462890	 63.790640	-6.742205	 2.315812	 4.477940	 1.478588	 5.400334	 7.707897	 28.497080	-6.580301	 5.266122	 0.000000	 0.000000	 0.000000	 0.000000	 0.000000	 0.000000	 0.000000	 0.089846	-3.783161	 0.005928	 0.049589	 1.791403	-3.170994	 101.796200	-0.213310	-89.955460	-10.367910	 63.280510	 1.652399	-2.820081	 4.050181	 0.833350	-9.158905	-2.772217	 27.122980	 15.208500	 5.323790	 0.000000	 0.000000	 0.000000	 0.000000	 0.000000	 0.000000	 0.000000
 0.001777	 1.271303	 0.063905	-0.054611	-0.293305	-179.999500	-175.647800	 1.052846	-17.867080	 2.053432	-9.599963	-0.085002	-5.722917	 68.906660	 4.594180	 1.292262	 28.425850	-2.713146	 175.476300	 1.770391	 17.877600	-2.205925	-10.604210	 0.061503	 5.828898	 69.326250	-4.711671	-1.288183	 28.361890	 2.710176	-0.064141	 4.594857	 12.194300	-1.946947	-3.695156	 3.761360	 2.236506	 4.728457	-11.659050	-101.478000	 1.740669	 90.353400	 11.335940	 63.659210	-7.569361	 2.308941	 4.465801	 1.478505	 4.247143	 7.291864	 26.354250	-6.580301	 5.266122	 0.000000	 0.000000	 0.000000	 0.000000	 0.000000	 0.000000	 0.000000	 0.089846	-3.783161	 0.005928	 0.050369	 1.971851	-2.926202	 101.796200	-0.213322	-89.955440	-11.316860	 63.321060	 2.539010	-2.810809	 4.037628	 0.835729	-8.680037	-1.950879	 24.863740	 15.208500	 5.323790	 0.000000	 0.000000	 0.000000	 0.000000	 0.000000	 0.000000	 0.000000
 0.001711	 1.271361	 0.063971	-0.015327	-0.333671	-179.999900	-175.606900	 1.126515	-17.865730	 2.065660	-9.656039	-0.082955	-5.719247	 68.930660	 4.585942	 1.292262	 28.425850	-2.713146	 175.518400	 1.762722	 17.879830	-2.182728	-10.495240	 0.065742	 5.802038	 69.264070	-4.694366	-1.288183	 28.361890	 2.710176	-0.061658	 4.796101	 11.076840	-1.753090	-4.573524	 3.316866	 2.050236	 5.844969	-10.339370	-101.478000	 1.740675	 90.353390	 12.242260	 63.510520	-8.427639	 2.292793	 4.450435	 1.473599	 2.978115	 6.852087	 23.429030	-6.580301	 5.266122	 0.000000	 0.000000	 0.000000	 0.000000	 0.000000	 0.000000	 0.000000	 0.089846	-3.783161	 0.005928	 0.049232	 2.172943	-2.595543	 101.796200	-0.213310	-89.955460	-12.482780	 63.321390	 3.626222	-2.796217	 4.029070	 0.862920	-8.020595	-0.879114	 22.022870	 15.208500	 5.323790	 0.000000	 0.000000	 0.000000	 0.000000	 0.000000	 0.000000	 0.000000
 0.001682	 1.271417	 0.064020	 0.013186	-0.364374	-179.999800	-175.577200	 1.172561	-17.865030	 2.070529	-9.678355	-0.082137	-5.714655	 68.938100	 4.579248	 1.292262	 28.425850	-2.713146	 175.548600	 1.759106	 17.881090	-2.166107	-10.417120	 0.068761	 5.780906	 69.219310	-4.679615	-1.288183	 28.361890	 2.710176	-0.056467	 4.934323	 9.963162	-1.570092	-5.197835	 2.923539	 1.857353	 6.643056	-9.147741	-101.478000	 1.740675	 90.353390	 12.876710	 63.397730	-9.031610	 2.275522	 4.439635	 1.466453	 2.025033	 6.538394	 20.772560	-6.580301	 5.266122	 0.000000	 0.000000	 0.000000	 0.000000	 0.000000	 0.000000	 0.000000	 0.089846	-3.783161	 0.005928	 0.046579	 2.323280	-2.296820	 101.796200	-0.213306	-89.955460	-13.428070	 63.289590	 4.504081	-2.782569	 4.027103	 0.900856	-7.431688	 0.034142	 19.575350	 15.208500	 5.323790	 0.000000	 0.000000	 0.000000	 0.000000	 0.000000	 0.000000	 0.000000
 0.001625	 1.271532	 0.064143	 0.062524	-0.438793	 179.999700	-175.526800	 1.272379	-17.864150	 2.077144	-9.708677	-0.081021	-5.696721	 68.944180	 4.559240	 1.292262	 28.425850	-2.713146	 175.602100	 1.768372	 17.883760	-2.133461	-10.263550	 0.074622	 5.737340	 69.129440	-4.649913	-1.288183	 28.361890	 2.710176	-0.044840	 5.200498	 6.102494	-0.956715	-6.485137	 1.701250	 1.147603	 8.299068	-5.360010	-101.478000	 1.740670	 90.353390	 14.152980	 63.154270	-10.271880	 2.210436	 4.411150	 1.435220	-0.207112	 5.872321	 12.301160	-6.580301	 5.266122	 0.000000	 0.000000	 0.000000	 0.000000	 0.000000	 0.000000	 0.000000	 0.089846	-3.783161	 0.005928	 0.031216	 2.654000	-1.347486	 101.796200	-0.213310	-89.955460	-15.850300	 63.095900	 6.720135	-2.734216	 4.033291	 1.063603	-5.655461	 2.561966	 12.185370	 15.208500	 5.323790	 0.000000	 0.000000	 0.000000	 0.000000	 0.000000	 0.000000	 0.000000
 0.001570	 1.271607	 0.064201	 0.083553	-0.475070	 179.995900	-175.508600	 1.306467	-17.863610	 2.074249	-9.695409	-0.081519	-5.670340	 68.934040	 4.535086	 1.292262	 28.425850	-2.713146	 175.626600	 1.756809	 17.885110	-2.110382	-10.154890	 0.078712	 5.717193	 69.067640	-4.640821	-1.288183	 28.361890	 2.710176	-0.028223	 5.263893	 3.767701	-0.585625	-6.872366	 1.019211	 0.700704	 8.799004	-3.207390	-101.478000	 1.740679	 90.353390	 14.517730	 63.085070	-10.647050	 2.168492	 4.396640	 1.413811	-1.076450	 5.633005	 7.478295	-6.580301	 5.266122	 0.000000	 0.000000	 0.000000	 0.000000	 0.000000	 0.000000	 0.000000	 0.089846	-3.783161	 0.005928	 0.019462	 2.759215	-0.808099	 101.796200	-0.213308	-89.955440	-16.887210	 62.958630	 7.636518	-2.704285	 4.042028	 1.175287	-4.707417	 3.752515	 8.157283	 15.208500	 5.323790	 0.000000	 0.000000	 0.000000	 0.000000	 0.000000	 0.000000	 0.000000
 0.001514	 1.271736	 0.064270	 0.114302	-0.518478	 179.990000	-175.482100	 1.329920	-17.863240	 2.063266	-9.645072	-0.083351	-5.628772	 68.904290	 4.498622	 1.292262	 28.425850	-2.713146	 175.661300	 1.730381	 17.886270	-2.077308	-9.999049	 0.084496	 5.691331	 68.979870	-4.629629	-1.288183	 28.361890	 2.710176	 0.011562	 5.270522	 0.830709	-0.129790	-7.073845	 0.207048	 0.145328	 9.056463	-0.626211	-101.478000	 1.740671	 90.353380	 14.674340	 63.051900	-10.841690	 2.113226	 4.379960	 1.384622	-1.807240	 5.417785	 1.683218	-6.580301	 5.266122	 0.000000	 0.000000	 0.000000	 0.000000	 0.000000	 0.000000	 0.000000	 0.089846	-3.783161	 0.005928	 0.003965	 2.814880	-0.161366	 101.796200	-0.213326	-89.955440	-17.860000	 62.798000	 8.453987	-2.664109	 4.054739	 1.325711	-3.609891	 4.955864	 3.472207	 15.208500	 5.323790	 0.000000	 0.000000	 0.000000	 0.000000	 0.000000	 0.000000	 0.000000
 0.001463	 1.271845	 0.064349	 0.146497	-0.568282	 179.983400	-175.452400	 1.375771	-17.863060	 2.058999	-9.625503	-0.084073	-5.592167	 68.889400	 4.463594	 1.292262	 28.425850	-2.713146	 175.695200	 1.726718	 17.887440	-2.050873	-9.874381	 0.089067	 5.673645	 68.906910	-4.623342	-1.288183	 28.361890	 2.710176	 0.078402	 5.186798	-3.016879	 0.419104	-6.957442	-0.780479	-0.530134	 8.896986	 2.509948	-101.478000	 1.740661	 90.353380	 14.462340	 63.057620	-10.707740	 2.141432	 4.361860	 1.334488	-2.309315	 5.020948	-5.389447	-6.580301	 5.266122	 0.000000	 0.000000	 0.000000	 0.000000	 0.000000	 0.000000	 0.000000	 0.089846	-3.783161	 0.005928	-0.015165	 2.782249	 0.624465	 101.796200	-0.213309	-89.955470	-18.775440	 62.619390	 9.272321	-2.714061	 4.072964	 1.283607	-4.808950	 6.344839	-4.267592	 15.208500	 5.323790	 0.000000	 0.000000	 0.000000	 0.000000	 0.000000	 0.000000	 0.000000
 0.001421	 1.271919	 0.064420	 0.185275	-0.611056	 179.977800	-175.412200	 1.439970	-17.862780	 2.066275	-9.658864	-0.082853	-5.573035	 68.901990	 4.439723	 1.292262	 28.425850	-2.713146	 175.732400	 1.737031	 17.888480	-2.033948	-9.794511	 0.091950	 5.667497	 68.857610	-4.622799	-1.288183	 28.361890	 2.710176	 0.170651	 5.032053	-6.553166	 0.867707	-6.550053	-1.599846	-1.072526	 8.359817	 5.101192	-101.478000	 1.740656	 90.353370	 13.922870	 63.079490	-10.254530	 2.205043	 4.348943	 1.280308	-2.411263	 4.609541	-11.288250	-6.580301	 5.266122	 0.000000	 0.000000	 0.000000	 0.000000	 0.000000	 0.000000	 0.000000	 0.089846	-3.783161	 0.005928	-0.029696	 2.670716	 1.273893	 101.796200	-0.213304	-89.955450	-19.570400	 62.432700	 10.030160	-2.802358	 4.098873	 1.162042	-6.811495	 7.925436	-11.438210	 15.208500	 5.323790	 0.000000	 0.000000	 0.000000	 0.000000	 0.000000	 0.000000	 0.000000
 0.001398	 1.271925	 0.064466	 0.205868	-0.638141	 179.975600	-175.388600	 1.499606	-17.862760	 2.079095	-9.717618	-0.080692	-5.573591	 68.928760	 4.433851	 1.292262	 28.425850	-2.713146	 175.750200	 1.765732	 17.889190	-2.032806	-9.789115	 0.092144	 5.670157	 68.849860	-4.624747	-1.288183	 28.361890	 2.710176	 0.240397	 4.887726	-9.054894	 1.138824	-6.126000	-2.125552	-1.396784	 7.804437	 6.745342	-101.478000	 1.740676	 90.353400	 13.378900	 63.087700	-9.776175	 2.254358	 4.338427	 1.238290	-2.309712	 4.304742	-15.069340	-6.580301	 5.266122	 0.000000	 0.000000	 0.000000	 0.000000	 0.000000	 0.000000	 0.000000	 0.089846	-3.783161	 0.005928	-0.037640	 2.557583	 1.686062	 101.796200	-0.213310	-89.955460	-20.203740	 62.276380	 10.643550	-2.874776	 4.124964	 1.068247	-8.287979	 9.227581	-16.141610	 15.208500	 5.323790	 0.000000	 0.000000	 0.000000	 0.000000	 0.000000	 0.000000	 0.000000
